<svg width="1024" height="1024" viewBox="0 0 1024 1024" fill="none" xmlns="http://www.w3.org/2000/svg">
<circle cx="512" cy="512" r="472" fill="white"/>
<path d="M610.209 387.617C677.074 387.617 743.939 387.617 812.83 387.617C812.83 402.514 812.83 417.41 812.83 432.757C741.786 432.757 670.742 432.757 597.545 432.757C597.545 443.464 597.545 454.17 597.545 465.201C668.589 465.201 739.633 465.201 812.83 465.201C812.83 479.632 812.83 494.062 812.83 508.93C746.43 508.93 680.029 508.93 611.616 508.93C626.843 532.919 642.408 549.077 670.472 556.538C697.947 561.957 724.045 557.426 748.104 542.785C753.545 538.89 758.615 534.571 763.582 530.089C767.545 531.899 770.423 533.778 773.484 536.874C774.278 537.67 775.071 538.466 775.889 539.286C776.731 540.144 777.572 541.003 778.439 541.887C779.32 542.774 780.201 543.661 781.109 544.575C783.921 547.41 786.723 550.255 789.525 553.1C791.406 554.999 793.286 556.897 795.168 558.795C799.401 563.067 803.633 567.339 807.842 571.636C809.892 573.694 812.006 575.688 814.122 577.676C817.052 580.871 817.052 580.871 817.052 585.103C802.769 605.401 776.101 617.083 753.733 626.011C752.827 626.377 751.922 626.742 750.989 627.119C744.244 629.762 737.486 631.639 730.428 633.24C729.42 633.479 728.412 633.717 727.374 633.962C718.381 636.046 709.615 637.499 700.351 637.384C699.003 637.371 697.656 637.359 696.267 637.345C694.762 637.321 694.762 637.321 693.227 637.296C693.837 638.256 694.446 639.216 695.074 640.205C702.163 652.576 703.582 662.895 701.67 676.793C698.282 687.804 689.912 695.685 680.069 701.225C670.254 705.692 660.533 707.076 650.119 703.859C639.018 698.951 631.795 690.829 625.687 680.496C622.61 669.314 623.06 657.544 628.501 647.17C635.522 636.569 644.652 630.074 656.643 626.011C668.817 623.655 678.071 627.905 689.006 633.064C689.006 621.892 689.006 610.72 689.006 599.209C684.363 599.209 679.719 599.209 674.935 599.209C638.52 594.81 608.409 577.017 585.522 548.545C581.076 542.665 577.228 536.518 573.624 530.089C572.853 528.725 572.853 528.725 572.066 527.333C556.259 498.625 554.133 469.26 555.332 436.989C556.863 436.354 558.394 435.72 559.971 435.066C582.331 425.412 600.859 411.051 610.209 387.617Z" fill="#020202"/>
<path d="M669.244 247.673C670.271 247.672 671.298 247.671 672.356 247.67C687.186 247.692 701.163 248.222 715.552 252.275C716.454 252.51 717.356 252.745 718.285 252.988C733.474 256.975 747.139 263.157 760.885 270.68C762.196 271.395 763.507 272.111 764.858 272.848C781.203 282.242 797.346 294.017 809.052 308.906C807.189 313.038 805.204 315.914 801.952 319.06C801.117 319.879 800.281 320.697 799.421 321.54C798.538 322.394 797.654 323.247 796.744 324.126C790.467 330.286 784.386 336.464 778.699 343.179C775.283 347.067 771.562 350.634 767.874 354.262C763.891 358.307 760.27 362.595 756.635 366.954C752.334 364.996 749.071 362.662 745.479 359.61C723.299 342.253 696.784 335.93 669.078 339.092C665.604 339.702 662.282 340.52 658.885 341.47C657.601 341.784 656.317 342.098 654.995 342.421C638.546 347.049 622.758 357.05 612.279 370.638C611.764 371.291 611.249 371.944 610.718 372.617C610.251 372.617 609.783 372.617 609.302 372.617C608.834 360.003 608.367 347.388 607.885 334.391C630.353 319.991 651.466 310.754 678.718 311.738C678.718 301.927 678.718 292.115 678.718 282.006C649.122 283.199 649.122 283.199 620.635 290.501C619.231 291.01 617.826 291.519 616.38 292.044C601.51 297.798 587.346 305.512 575.302 315.985C574.367 315.606 573.432 315.226 572.468 314.835C570.365 314.003 570.365 314.003 568.218 313.154C566.611 312.453 565.004 311.752 563.349 311.03C554.94 307.84 545.929 307.134 537.052 306.075C547.445 283.133 579.097 270.044 600.802 260.769C602.941 259.855 602.941 259.855 605.124 258.922C616.508 254.468 628.551 252.037 640.468 249.443C641.546 249.191 642.624 248.939 643.735 248.679C652.106 247.249 660.765 247.68 669.244 247.673Z" fill="#020202"/>
<path d="M598.371 705.627C599.756 705.64 601.141 705.653 602.569 705.667C619.745 706.144 633.223 712.034 645.811 723.673C658.426 737.359 664.521 751.738 664.024 770.247C663.999 771.767 663.975 773.286 663.95 774.852C663.318 796.811 655.985 813.712 639.976 829.087C630.124 836.552 614.733 846.43 602.188 846.43C603.09 847.618 603.992 848.806 604.921 850.03C606.071 851.588 607.22 853.146 608.404 854.751C609.558 856.295 610.712 857.84 611.901 859.431C612.726 860.847 613.552 862.262 614.402 863.72C613.539 866.288 613.539 866.288 612.657 868.907C595.484 871.496 578.332 872.905 560.964 873.337C559.187 873.425 557.41 873.513 555.579 873.604C546.337 873.719 540.815 873.22 534.02 866.685C518.863 849.415 517.044 828.697 518.431 806.664C520.406 794.265 525.815 783.321 534.136 773.813C535.287 773.813 536.439 773.813 537.626 773.813C538.093 772.744 538.561 771.674 539.043 770.572C541.115 766.898 541.115 766.898 546.35 763.44C546.968 757.689 547.112 752.126 547.117 746.353C547.413 735.481 551.162 729.495 558.762 721.546C560.029 720.429 561.295 719.313 562.6 718.162C563.853 717.032 565.106 715.902 566.396 714.738C576.679 707.307 586.016 705.464 598.371 705.627Z" fill="#020202"/>
<path d="M815.651 701.301C818.784 702.632 821.498 704.116 824.34 705.987C825.335 706.619 826.33 707.251 827.356 707.902C835.152 713.283 840.875 719.209 844.051 728.219C844.125 735.108 840.726 738.577 836.514 743.783C835.737 744.778 834.961 745.774 834.161 746.799C827.932 754.704 821.313 762.203 814.46 769.569C812.777 771.506 811.1 773.448 809.431 775.397C807.816 777.224 806.198 779.049 804.58 780.872C803.664 781.949 802.749 783.025 801.806 784.134C794.664 792.053 794.664 792.053 788.348 792.617C773.283 786.962 763.309 777.342 756.513 762.836C752.376 753.047 751.872 742.471 755.41 732.391C767.388 707.796 788.406 694.745 815.651 701.301Z" fill="#020202"/>
<path d="M733.715 793.634C739.914 798.192 746.353 804.414 747.85 812.331C748.179 816.362 748.183 819.554 747.265 823.5C743.614 827.541 739.29 829.724 734.502 832.148C732.706 833.156 732.706 833.156 730.874 834.185C724.823 837.484 719.278 840.351 712.298 840.617C705.578 837.782 701.175 834.855 697.846 827.947C695.558 820.55 695.131 812.967 698.507 805.893C707.581 792.84 718.621 788.697 733.715 793.634Z" fill="#020202"/>
<path d="M871.248 628.79C872.034 629.141 872.821 629.493 873.631 629.856C876.155 637.416 877.064 644.125 877.049 652.072C877.051 653.738 877.051 653.738 877.052 655.437C876.88 664.509 876.128 678.575 869.314 685.307C860.632 686.264 854.108 685.053 846.288 681.042C844.374 680.162 844.374 680.162 842.42 679.264C836.464 674.811 834.143 669.994 832.375 663.047C831.839 658.513 831.851 655.52 833.336 651.183C837.187 647.917 841.074 645.942 845.636 643.752C852.549 640.244 858.145 635.587 864.142 630.745C867.875 628.434 867.875 628.434 871.248 628.79Z" fill="#020202"/>
<path d="M373.097 536.215C379.072 539.777 382.013 544.56 385.723 550.369C389.85 552.45 393.583 552.025 398.175 552.049C400.774 552.08 400.774 552.08 403.425 552.11C407.906 551.802 410.193 551.571 413.783 548.953C415.838 546.27 415.838 546.27 417.466 543.203C420.525 537.768 420.525 537.768 423.604 536.215C430.398 535.272 434.84 535.212 440.528 539.311C443.246 543.292 443.246 543.292 444.123 546.919C442.848 551.933 440.562 553.409 436.231 556.03C432.477 556.18 432.477 556.18 429.216 556.03C429.178 558.301 429.151 560.571 429.128 562.842C429.112 564.106 429.096 565.371 429.079 566.673C429.061 570.374 429.061 570.374 430.619 574.431C437.564 575.832 437.564 575.832 444.649 577.261C445.701 581.861 445.701 581.861 446.052 587.169C443.196 591.066 441.48 592.63 436.723 593.55C435.311 593.554 433.899 593.559 432.444 593.563C430.838 593.581 429.232 593.599 427.577 593.617C425.848 593.606 424.119 593.595 422.338 593.583C419.666 593.591 419.666 593.591 416.939 593.599C413.171 593.603 409.404 593.595 405.635 593.569C400.817 593.537 396 593.555 391.181 593.589C386.572 593.615 381.964 593.597 377.355 593.583C375.629 593.594 373.903 593.606 372.124 593.617C369.708 593.591 369.708 593.591 367.244 593.563C365.124 593.557 365.124 593.557 362.962 593.55C357.959 592.626 355.56 590.839 352.052 587.169C352.315 581.861 352.315 581.861 353.455 577.261C354.451 576.988 355.448 576.714 356.474 576.432C358.409 575.879 358.409 575.879 360.382 575.315C361.668 574.954 362.954 574.593 364.279 574.22C367.72 573.345 367.72 573.345 368.888 570.184C369.164 567.475 369.164 567.475 369.151 564.523C369.171 563.53 369.19 562.538 369.211 561.515C369.119 558.514 369.119 558.514 366.082 556.03C364.924 555.563 363.767 555.096 362.574 554.615C359.067 553.199 359.067 553.199 356.261 550.369C355.617 545.389 355.684 542.798 358.365 538.515C363.215 535.334 367.554 535.121 373.097 536.215Z" fill="#020202"/>
<path fill-rule="evenodd" clip-rule="evenodd" d="M301.409 217.213L304.23 220.035C303.804 224.614 302.767 228.666 301.375 233.048C297.706 247.24 298.36 263.552 305.641 276.472C308.935 281.238 312.172 285.804 316.929 289.17C322.945 288.969 327.433 285.959 332.202 282.76C332.89 282.298 333.584 281.833 334.289 281.371C341.748 277.296 349.041 276.119 357.459 276.107L362.996 276.08C364.966 276.085 366.936 276.091 368.906 276.097C370.953 276.095 373 276.092 375.046 276.089C379.324 276.085 383.601 276.091 387.879 276.104C393.336 276.12 398.793 276.111 404.25 276.094C408.473 276.084 412.696 276.087 416.919 276.094C418.93 276.096 420.941 276.094 422.952 276.087C435.507 276.055 447.006 276.081 458.373 282.027L461.195 283.493L461.195 283.494L461.195 283.494L461.197 283.495L461.199 283.496C462.215 284.09 462.813 284.44 463.387 284.825C464.204 285.373 464.974 285.993 466.836 287.493L466.837 287.494L466.838 287.494L466.838 287.495C468.049 288.514 468.632 289.005 469.296 289.168C469.913 289.319 470.6 289.185 471.925 288.928C475.91 287.389 477.831 285.231 480.659 282.054L480.683 282.027L483.554 278.891C489.924 269.801 491.13 261.195 490.912 250.282L490.926 246.812C490.863 239.742 489.713 233.897 487.649 227.09L487.649 227.089L487.65 227.083C487.945 223.986 488.075 222.617 488.286 221.26C488.453 220.188 488.67 219.124 489.059 217.221L489.059 217.219L489.06 217.214L489.06 217.213C497.678 217.644 502.506 221.701 508.813 227.09L511.431 229.25C519.9 236.878 527.707 249.357 528.838 260.91C529.576 281.431 528.096 298.186 514.324 314.556L514.324 314.556L514.324 314.556C507.388 321.861 505.105 324.266 502.404 326.032C501.078 326.899 499.652 327.612 497.526 328.676L497.526 328.677C497.99 331.23 498.221 332.503 498.576 333.741C498.928 334.972 499.402 336.168 500.347 338.552C500.404 341.373 500.409 344.196 500.347 347.018L503.197 344.796C518.169 333.468 531.249 327.013 549.994 327L553.932 326.948C566.222 326.922 576.041 329.348 586.942 335.025L589.571 336.342C593.24 338.212 596.182 339.855 599.111 342.785C600.88 361.06 592.28 378.576 580.99 392.569C569.031 405.288 550.748 416.984 532.815 417.671C529.604 417.702 526.397 417.686 523.187 417.651L519.816 417.632C517.089 417.616 514.362 417.59 511.635 417.563L511.657 419.979C511.686 423.583 511.705 427.187 511.723 430.791L511.759 434.593L511.772 438.231L511.795 441.589V441.59C511.72 442.897 511.68 443.59 511.512 444.25C511.323 444.994 510.971 445.697 510.224 447.192L510.224 447.192H522.922L523.032 453.398C524.32 504.104 541.929 551.602 579.039 587.066C586.533 593.92 594.917 599.583 603.344 605.215L605.809 606.863C607.808 608.197 609.808 609.528 611.81 610.859C606.82 623.04 589.219 630.378 577.043 635.454L577.031 635.459L577.002 635.471C576.361 635.739 575.734 636 575.126 636.255C572.357 636.818 571.176 637.058 569.987 637.241C569.102 637.377 568.212 637.483 566.66 637.666L566.23 640.719C563.192 653.114 553.04 664.997 542.598 672.085C539.395 673.971 536.169 675.605 532.798 677.172L529.183 678.858C515.446 684.568 502.972 684.756 489.06 679.464C486.228 678.254 483.405 677.021 480.595 675.761C478.247 674.81 475.897 673.866 473.54 672.939L475.144 676.676C477.569 682.433 479.797 688.259 482.006 694.102L483.099 696.87C491.927 719.844 494.592 754.534 485.445 777.787L485.444 777.788L485.442 777.794C484.212 780.407 483.624 781.658 482.989 782.884C482.407 784.007 481.785 785.11 480.595 787.223L478.28 791.555C465.507 813.459 442.889 828.707 418.514 835.194C411.616 834.614 406.137 833.026 399.875 830.129L394.942 827.856C393.216 827.041 391.491 826.224 389.767 825.406L387.099 824.149C342.895 803.295 303.149 773.434 273.443 734.367C272.11 732.628 270.74 730.917 269.36 729.215C245.515 699.426 236.014 662.629 239.328 624.968C242.346 604.553 247.349 584.368 256.259 565.709L257.526 563C266.016 544.925 275.495 526.806 288.545 511.582C291.796 503.908 289.429 494.05 287.347 485.382L287.347 485.381C286.846 483.296 286.362 481.28 285.977 479.379C281.931 458.591 279.808 438.755 280.245 417.563L274.877 417.712C258.268 418.041 252.787 418.149 247.742 416.719C245.258 416.015 242.879 414.938 239.328 413.331L239.328 413.331L235.735 411.859C212.961 401.163 198.107 379.614 189.241 356.806C187.509 351.96 186.663 347.943 187.124 342.785C197.234 331.63 214.713 327.794 229.116 326.956C253.203 326.192 271.726 333.01 290.121 348.428L290.738 344.108C291.152 341.214 291.35 339.828 291.657 338.466C291.939 337.213 292.313 335.98 293.031 333.614C293.277 330.898 293.385 329.701 292.969 328.727C292.641 327.959 291.987 327.331 290.816 326.207C288.831 324.516 286.807 322.869 284.753 321.263C273.709 312.479 265.73 300.252 263.314 286.348C262.879 281.667 262.792 277.027 262.785 272.327L262.68 268.726C262.607 252.895 271.358 238.717 281.656 227.09L281.656 227.09L281.656 227.09L281.656 227.09L281.656 227.09L281.656 227.09L281.656 227.09L281.656 227.09C284.81 224.399 285.959 223.419 287.278 223.062C288.033 222.857 288.845 222.857 290.121 222.857V220.035C294.67 217.003 296.142 216.673 301.409 217.213ZM358.085 295.815L363.424 295.76C365.345 295.756 367.266 295.753 369.187 295.751C371.17 295.742 373.152 295.732 375.135 295.722C379.293 295.705 383.451 295.7 387.61 295.702C392.904 295.702 398.197 295.664 403.491 295.615C407.59 295.583 411.688 295.578 415.787 295.579C417.737 295.576 419.686 295.564 421.635 295.542C437.662 295.378 450.461 297.479 462.418 308.758C471.46 318.925 479.591 331.656 479.183 345.607L476.334 345.877C462.178 347.758 450.32 354.637 440.559 365.078C423.327 388.4 422.039 414.689 425.128 442.519C428.082 461.274 434.068 478.01 442.574 494.944L444.203 498.195L445.679 501.068C446.099 502.09 446.352 502.704 446.504 503.343C446.732 504.303 446.732 505.318 446.732 507.862L444.554 506.654C435.263 501.965 427.277 501.391 416.982 501.469L412.118 501.452C408.739 501.448 405.359 501.459 401.98 501.482C396.846 501.513 391.715 501.483 386.581 501.447C383.282 501.45 379.982 501.457 376.683 501.469L372.089 501.434C361.668 501.561 353.286 503.714 343.736 507.862C345.257 502.605 347.266 497.947 349.82 493.135C361.448 470.36 366.542 445.477 366.751 420.121L366.875 415.18C367.034 393.472 358.958 375.79 344.314 360.046C339.431 355.519 334.231 352.6 328.215 349.839L325.399 348.307C321.501 346.529 317.637 346.183 313.499 345.813H313.499C312.77 345.747 312.032 345.681 311.284 345.607C312.024 329.344 322.238 315.38 333.859 304.69C337.11 302.344 340.078 300.768 343.736 299.046L346.294 297.529C350.227 295.866 353.474 295.845 357.678 295.817L358.085 295.815ZM463.31 691.385C455.742 675.356 444.774 661.973 428.39 654.597C422.446 653.012 417.019 653.996 411.432 655.01C407.817 655.666 404.134 656.334 400.201 656.326L396.556 656.272C389.771 656.251 383.104 656.141 376.351 655.435L371.689 654.861C361.514 653.963 355.8 657.493 348.166 663.828C333.843 677.169 325.509 693.374 324.599 713.062C324.954 723.146 327.12 736.774 334.562 744.177L336.884 746.394C339.405 750.78 340.687 753.012 341.316 755.414C341.967 757.903 341.916 760.575 341.814 766.015C341.777 767.793 341.641 769.721 341.5 771.726C340.932 779.789 340.278 789.078 345.62 794.702C350.225 797.639 352.483 798.126 357.844 797.099C361.729 794.097 363.318 792.479 364.128 787.577L364.039 783.188L363.984 778.421L363.84 773.466C363.768 768.754 363.695 764.043 363.577 759.331L363.488 756.183C365.673 756.183 366.73 756.183 367.715 755.916C368.637 755.666 369.496 755.181 371.159 754.243C374.19 752.321 377.191 750.682 380.419 749.128C385.006 753.833 388.278 756.724 394.969 757.241H394.969C397.636 757.114 399.314 757.034 400.869 756.554C403.508 755.739 405.791 753.772 411.949 748.467L414.281 746.306V749.128L416.407 750.682C417.783 751.566 418.488 752.019 419.158 752.518C419.862 753.041 420.529 753.614 421.895 754.788C423.621 758.133 424.498 759.834 424.926 761.641C425.368 763.511 425.329 765.494 425.251 769.529C425.09 775.211 425.016 780.874 425.148 786.557C425.741 791.48 427.398 793.99 431.212 797.099C433.622 797.185 434.856 797.229 436.062 797.067C437.327 796.897 438.56 796.501 441.087 795.688L441.088 795.688C444.81 791.983 446.568 789.699 447.372 784.465L447.283 779.92L447.228 774.974L447.084 769.851C447.012 764.968 446.939 760.087 446.821 755.205L446.732 751.95C448.641 751.068 450.52 750.118 452.375 749.128C458.287 742.53 463.403 735.136 464.754 726.261L465.073 722.321C466.023 711.984 466.957 701.296 463.31 691.385ZM367.117 517.489L371.073 517.434L375.349 517.402L379.774 517.368C382.872 517.348 385.97 517.333 389.068 517.322C393.766 517.298 398.462 517.236 403.159 517.173C406.176 517.159 409.192 517.147 412.209 517.138L416.415 517.063C432.911 517.113 446.071 522.998 458.108 534.14C468.991 545.253 472.642 557.916 472.774 573.093C472.542 584.392 468.894 593.314 461.613 602.024C451.232 611.691 438.057 611.591 424.865 611.49C423.777 611.482 422.688 611.473 421.6 611.47C419.429 611.477 417.258 611.484 415.087 611.493C410.552 611.505 406.017 611.502 401.482 611.488C395.694 611.472 389.908 611.5 384.12 611.541C379.641 611.567 375.163 611.567 370.684 611.559C368.551 611.559 366.418 611.567 364.285 611.585C350.328 611.684 339.064 611.146 328.568 600.806C319.304 590.778 317.355 579.728 317.804 566.36C319.38 551.972 325.88 540.422 336.609 530.789C345.469 523.827 355.632 517.628 367.117 517.489ZM426.98 626.379H364.899V629.201C369.396 632.163 373.987 634.799 378.984 636.829C390.134 640.108 404.799 639.195 415.268 634.574L419.484 632.64C421.984 631.495 424.482 630.349 426.98 629.201V626.379ZM318.215 407.474L325.27 408.884C324.642 412.86 324.386 414.477 323.62 415.798C323.094 416.703 322.328 417.469 321.037 418.761L321.037 418.761L321.037 418.761L321.037 418.761C321.502 423.413 321.915 425.283 325.27 428.637C328.188 429.031 329.623 429.224 331.057 429.217C332.444 429.211 333.83 429.018 336.557 428.637C338.332 426.525 339.185 425.509 339.907 424.406C340.576 423.384 341.131 422.286 342.2 420.172L342.201 420.172H345.022C345.526 425.582 345.442 428.007 342.377 432.605C338.29 436.812 335.677 437.484 329.943 437.896C325.416 437.85 323.094 437.541 319.323 434.981C314.945 430.406 311.982 426.352 311.601 419.907C312.646 414.112 314.096 411.592 318.215 407.474ZM482.975 410.236C481.876 409.254 480.335 408.768 476.237 407.474L476.237 407.474C475.813 409.085 475.593 409.922 475.42 410.768C475.233 411.681 475.101 412.606 474.826 414.528L477.648 417.35C477.883 419.466 478.001 420.525 478.001 421.583C478.001 422.641 477.883 423.699 477.648 425.815L477.648 425.816C476.353 427.326 475.667 428.126 474.811 428.647C473.846 429.234 472.665 429.466 470.153 429.96C467.441 430.296 466.091 430.464 464.952 430.049C463.824 429.638 462.903 428.655 461.07 426.697C459.417 424.768 458.624 423.844 457.647 423.202C456.747 422.611 455.691 422.259 453.663 421.583L453.133 425.375C453.384 427.59 453.516 428.756 453.943 429.801C454.416 430.96 455.251 431.971 457.014 434.105C462.816 438.435 469.308 437.975 476.237 437.103C480.46 434.991 482.133 432.616 484.703 428.637C486.073 423.185 486.958 418.182 484.945 412.836C484.14 411.599 483.638 410.828 482.975 410.236ZM569.357 363.735C565.601 372.954 557.129 379.369 548.216 383.317C539.978 386.522 532.654 387.907 523.767 387.809L519.198 387.77L515.743 387.721L517.153 383.488C518.94 382.896 519.942 382.563 520.958 382.275C522.258 381.906 523.578 381.608 526.589 380.931C539.33 377.846 551.713 373.622 562.694 366.292L562.694 366.292C565.044 364.728 565.956 364.121 566.956 363.885C567.591 363.735 568.261 363.735 569.357 363.735ZM248.11 372.73C242.381 369.587 237.002 367.043 230.738 365.146V367.968C236.762 374.565 242.764 379.528 250.745 383.675C260.978 388.351 272.094 389.926 282.942 386.31V383.488C270.721 381.106 259.191 378.574 248.11 372.73Z" fill="#020202"/>
<path fill-rule="evenodd" clip-rule="evenodd" d="M512 1007C785.381 1007 1007 785.381 1007 512C1007 238.619 785.381 17 512 17C238.619 17 17 238.619 17 512C17 785.381 238.619 1007 512 1007ZM512 967C763.29 967 967 763.29 967 512C967 260.71 763.29 57 512 57C260.71 57 57 260.71 57 512C57 763.29 260.71 967 512 967Z" fill="#020202"/>
<path fill-rule="evenodd" clip-rule="evenodd" d="M512 942C749.482 942 942 749.482 942 512C942 274.518 749.482 82 512 82C274.518 82 82 274.518 82 512C82 749.482 274.518 942 512 942ZM512.001 907.252C730.293 907.252 907.254 730.292 907.254 512C907.254 293.708 730.293 116.747 512.001 116.747C293.709 116.747 116.749 293.708 116.749 512C116.749 730.292 293.709 907.252 512.001 907.252Z" fill="#020202"/>
</svg>
